<svg xmlns="http://www.w3.org/2000/svg" width="327.449" height="145.992" viewBox="0 0 327.449 145.992">
  <g id="Group_56" data-name="Group 56" transform="translate(-796.634 -4328.751)">
    <g id="star-svgrepo-com" transform="translate(796.634 4383.284) rotate(-30)">
      <path id="Path_4" data-name="Path 4" d="M109.066,39.9,73.223,37.329,54.531,0l-18.9,37.328L0,39.9,23.86,68.715l-6.821,36.892L54.531,88.626,92.023,105.6l-6.93-36.892Z" transform="translate(0 0)" fill="#ff6464"/>
      <path id="Path_5" data-name="Path 5" d="M37.492,105.607l-6.93-36.9,23.952-28.79v-.027L18.692,37.328,0,0V88.626Z" transform="translate(54.531 0)" fill="#cb5a5a"/>
    </g>
    <g id="star-svgrepo-com-2" data-name="star-svgrepo-com" transform="translate(1029.629 4328.752) rotate(30)">
      <path id="Path_4-2" data-name="Path 4" d="M109.065,39.9,73.222,37.328,54.531,0l-18.9,37.328L0,39.9,23.86,68.715l-6.821,36.892L54.531,88.626,92.022,105.6l-6.93-36.892Z" transform="translate(0 0)" fill="#ff6464"/>
      <path id="Path_5-2" data-name="Path 5" d="M37.492,105.607l-6.93-36.9,23.952-28.79v-.027L18.692,37.328,0,0V88.626Z" transform="translate(54.531 0)" fill="#cb5a5a"/>
    </g>
  </g>
</svg>
