<svg xmlns="http://www.w3.org/2000/svg" width="313.86" height="213.487" viewBox="0 0 313.86 213.487">
  <g id="Group_57" data-name="Group 57" transform="translate(-1327.271 -4278)">
    <g id="star-svgrepo-com" transform="translate(1432.527 4278)">
      <path id="Path_4" data-name="Path 4" d="M104.539,42.683,70.184,40.221,52.268,4.441,34.149,40.22,0,42.683,22.87,70.3l-6.538,35.361L52.268,89.389,88.2,105.663,81.561,70.3Z" transform="translate(0 -4.441)" fill="#f4b459"/>
      <path id="Path_5" data-name="Path 5" d="M175.993,105.666,169.351,70.3l22.958-27.6v-.026L157.973,40.22,140.057,4.441V89.389Z" transform="translate(-87.789 -4.441)" fill="#e3a753"/>
    </g>
    <g id="star-svgrepo-com-2" data-name="star-svgrepo-com" transform="translate(1327.271 4403.824) rotate(-30)">
      <path id="Path_4-2" data-name="Path 4" d="M104.539,38.242,70.184,35.78,52.268,0,34.149,35.779,0,38.242,22.87,65.863l-6.538,35.361L52.268,84.948,88.2,101.222,81.561,65.86Z" transform="translate(0 0)" fill="#f4b459"/>
      <path id="Path_5-2" data-name="Path 5" d="M35.936,101.225,29.294,65.86l22.958-27.6v-.026L17.916,35.779,0,0V84.948Z" transform="translate(52.268 0)" fill="#e3a753"/>
    </g>
    <g id="star-svgrepo-com-3" data-name="star-svgrepo-com" transform="translate(1550.597 4351.554) rotate(30)">
      <path id="Path_4-3" data-name="Path 4" d="M104.539,38.242,70.184,35.779,52.268,0,34.149,35.779,0,38.242,22.87,65.863l-6.538,35.361L52.268,84.948,88.2,101.222,81.561,65.86Z" transform="translate(0)" fill="#f4b459"/>
      <path id="Path_5-3" data-name="Path 5" d="M35.936,101.225,29.294,65.86l22.958-27.6v-.026L17.916,35.779,0,0V84.948Z" transform="translate(52.268 0)" fill="#e3a753"/>
    </g>
  </g>
</svg>
